PathFileType	4	(X/Y/Z)	D:\TRACE\v60_Jaco2_6-2-23\BothDRS_Motion2_6-v60.trc
DataRate	CameraRate	NumFrames	NumMarkers	Units	OrigDataRate	OrigDataStartFrame	OrigNumFrames
100.00	100.00	      31	9	mm	100.00	1876	      7500
Frame#	Time	front left toe			Front right toe			aft left toe			aft right toe			Arm			FL body			FR body			AL Body			AR Body			
		X1	Y1	Z1	X2	Y2	Z2	X3	Y3	Z3	X4	Y4	Z4	X5	Y5	Z5	X6	Y6	Z6	X7	Y7	Z7	X8	Y8	Z8	X9	Y9	Z9	

1876	18.750	-203.97169	144.69687	-263.04428	126.58470	34.42752	-282.14175	-237.89145	-6.41365	355.30014	200.32176	114.45037	342.93942	-7.50485	1194.85083	-609.05145	-117.38602	589.60559	-401.63885	42.34129	583.33740	-407.78424	-79.38568	560.35840	543.41711	76.05046	547.94611	537.62152	
1877	18.760	-200.71233	137.44228	-259.75046	126.82417	34.85019	-281.98190	-237.86092	-6.54782	355.46265	204.21420	108.10935	346.15942	-6.13884	1194.92896	-607.34985	-115.69936	590.19403	-400.62726	44.70205	584.21143	-407.29776	-78.28878	559.06677	544.28473	78.44029	547.24207	538.88190	
1878	18.770	-196.98337	128.60254	-256.39996	127.11189	35.17987	-281.80554	-237.66934	-6.83304	355.65256	208.64720	100.65905	348.92380	-5.01109	1195.29822	-605.48639	-113.75845	590.33026	-399.31818	46.56015	584.58472	-406.05750	-76.35559	557.96454	545.50854	79.70224	546.57825	540.26563	
1879	18.780	-193.80191	118.63394	-253.29030	127.46535	35.50367	-281.52225	-237.24011	-7.20861	356.15619	213.61407	91.84142	351.54886	-4.12530	1196.02405	-603.43903	-112.01217	590.79431	-398.20459	48.45187	585.17377	-404.78235	-73.93211	557.07281	546.42987	81.63594	545.77673	541.01447	
1880	18.790	-190.68288	107.54418	-249.97552	127.47277	35.64653	-281.43634	-237.15439	-7.38406	356.30161	218.59795	82.55750	354.37527	-3.23652	1196.96790	-601.14081	-110.11356	591.19434	-396.78516	50.43479	585.70496	-403.57211	-72.34301	556.16498	547.92078	84.03442	545.13977	542.40631	
1881	18.800	-187.47684	96.50689	-246.72188	127.54416	35.97116	-281.10504	-237.08578	-7.58127	356.47565	223.80959	72.73432	357.24484	-2.94570	1198.04236	-598.71570	-108.09607	591.28979	-395.57593	52.32064	586.32056	-402.20584	-70.01501	555.25244	549.21704	86.23030	544.34473	543.80231	
1882	18.810	-183.77754	85.26416	-243.32040	127.84480	36.35930	-280.71094	-236.99565	-8.02881	356.85736	228.74478	62.98403	360.43869	-2.28039	1198.88110	-595.96637	-105.87366	591.55975	-394.18622	53.80219	586.65057	-400.20822	-68.33559	553.60736	550.83881	88.64742	543.46643	545.19519	
1883	18.820	-179.35924	74.31087	-240.12587	128.24524	36.63017	-280.46759	-236.85841	-8.59772	357.00482	232.72610	52.76077	363.72192	-1.54574	1200.05688	-593.27527	-103.55457	591.61212	-392.40030	56.23418	587.45197	-399.07123	-65.99580	552.45313	551.97131	90.77386	542.44000	546.74390	
1884	18.830	-175.17682	63.82750	-237.19725	128.24149	36.80265	-280.18542	-236.73108	-8.96820	357.08044	236.64250	43.22363	366.54242	-1.24743	1200.79810	-590.82635	-101.60854	591.52740	-390.79318	58.44860	587.84619	-397.20837	-63.46657	551.35919	553.68860	93.12953	541.56067	548.14642	
1885	18.840	-170.62164	53.53493	-234.36940	128.29120	37.15520	-279.91916	-236.59135	-9.19611	357.22272	240.96997	34.64747	368.81827	-0.31270	1201.13501	-588.04858	-99.51090	592.02130	-389.10321	60.92170	588.52417	-395.77362	-60.89833	550.13660	555.51740	95.50871	540.69873	549.73273	
1886	18.850	-166.57095	44.58032	-231.88538	128.44028	37.53443	-279.57834	-236.54416	-9.31863	357.53357	244.45128	25.85274	370.88651	0.28330	1202.08887	-585.14081	-97.48357	592.28864	-387.16068	62.98743	589.08923	-394.12854	-58.38484	548.80359	557.14575	98.23133	539.77509	551.37750	
1887	18.860	-163.56804	37.57275	-229.55916	128.64124	37.74252	-279.35150	-236.54602	-9.61988	357.87250	248.37329	18.16782	373.19458	0.74423	1202.33289	-582.21924	-95.36942	592.16132	-385.42313	65.46736	589.68524	-392.03589	-55.95408	547.19543	559.06415	100.89989	538.74890	553.18628	
1888	18.870	-165.51239	39.75436	-233.50655	128.50227	37.80241	-279.12335	-236.66481	-9.84765	358.02475	251.70580	11.04725	375.59985	1.19604	1202.77148	-579.37543	-92.83558	592.31305	-383.04794	67.54112	590.25964	-390.19675	-53.30893	545.88922	561.24506	103.91542	537.55420	555.45862	
1889	18.880	-166.29529	38.06258	-230.54190	128.22192	37.96220	-278.82874	-236.76013	-9.86593	358.30334	254.79204	4.44029	378.22720	1.49652	1203.48950	-576.26068	-90.11085	593.11169	-380.44174	69.54976	590.83441	-387.50870	-50.06947	544.62354	563.29193	106.85107	536.14325	557.39520	
1890	18.890	-165.59468	40.40781	-230.22882	127.79710	38.32339	-278.66431	-236.86542	-9.75908	358.48001	256.92828	-2.84143	380.47693	1.72321	1204.16858	-573.07227	-88.59596	594.39264	-378.14117	71.55847	592.13483	-385.49561	-46.67048	543.24658	566.18170	110.04049	535.02618	559.43433	
1891	18.900	-165.98349	40.71846	-231.44427	127.31620	38.35575	-278.55380	-236.86728	-9.65003	358.98163	258.56271	-7.10234	378.79050	3.25226	1205.73071	-569.03326	-86.62862	595.33032	-375.49707	73.58640	593.30774	-383.05966	-43.61816	542.32117	568.17181	113.78279	534.77283	561.91791	
1892	18.910	-166.30478	41.39558	-229.81180	127.22215	38.58503	-278.24850	-236.23947	-9.61717	359.17511	259.12329	-9.81706	378.51559	5.58669	1207.80103	-564.51996	-84.66661	594.66138	-372.96747	75.18539	593.57587	-380.39316	-40.80291	543.02167	570.94769	115.73936	536.56610	564.33313	
1893	18.920	-164.97704	40.59957	-228.12364	128.77612	41.63420	-276.96140	-232.89386	-7.38319	359.72729	260.07251	-8.71334	382.01019	7.71781	1210.25098	-560.77606	-82.36983	594.58014	-370.39343	77.94054	593.81989	-378.30682	-37.89697	544.56006	573.29150	118.97723	537.94604	566.94684	
1894	18.930	-164.56847	41.19750	-225.37656	128.81323	45.56062	-273.13660	-227.82651	-3.87544	363.22382	258.85760	-10.68250	382.66019	9.18775	1212.28931	-558.14362	-80.39510	595.75513	-368.21881	79.93312	594.66272	-376.14230	-35.79281	544.64960	575.57996	120.98251	537.84686	569.40637	
1895	18.940	-163.31717	41.81257	-224.45602	129.60143	50.01727	-267.87253	-222.11897	-1.70952	367.70279	259.13623	-11.05806	381.42636	10.35728	1212.73926	-556.56464	-78.77531	597.45142	-366.08401	80.94424	596.57733	-373.77682	-33.65372	543.18213	577.62164	123.21066	536.62714	570.81152	
1896	18.950	-161.81886	41.40173	-221.85667	130.86349	61.60819	-266.09143	-216.47987	5.70227	368.76306	259.31714	-11.83350	382.90552	11.65333	1212.55750	-554.78613	-76.95087	598.71399	-363.90219	82.74721	598.22327	-372.38150	-31.34417	541.49316	579.15546	125.53609	535.66962	572.87695	
1897	18.960	-162.74806	41.84668	-221.38266	133.75714	72.06808	-264.26334	-212.67805	15.17065	368.42706	258.59088	-12.09499	382.08713	12.16600	1212.78259	-552.48853	-76.46934	600.07690	-362.60452	84.08887	599.19482	-370.74323	-29.28571	540.53021	580.62390	127.68450	534.40942	573.51990	
1898	18.970	-163.45181	41.66351	-222.28734	137.50108	85.04344	-264.36673	-208.61745	27.16024	367.78033	258.14981	-12.59270	382.35864	12.82098	1213.35168	-549.66846	-75.26083	600.67590	-361.20267	85.05392	599.72247	-369.56967	-27.16743	539.57092	582.12866	129.65773	533.12189	574.81421	
1899	18.980	-164.42679	41.72978	-221.79814	142.06218	97.88291	-264.07333	-206.92776	39.88963	367.66843	257.88660	-13.34262	382.45267	13.19342	1214.76746	-546.96442	-74.43242	601.16211	-359.84622	85.22208	600.34137	-368.17255	-25.48508	538.19257	583.09192	131.92732	531.58600	575.89435	
1900	18.990	-164.45239	41.65969	-221.55095	145.83725	110.74868	-263.92044	-203.69678	50.99589	369.81345	257.59631	-13.80277	382.42181	13.95193	1215.98206	-544.75055	-73.70902	601.99207	-358.59149	86.28045	600.95233	-367.13028	-23.69516	536.17450	584.41644	133.29770	529.78888	576.56042	
1901	19.000	-164.97717	41.95963	-221.66704	151.75578	123.07948	-262.92282	-199.90181	62.89221	372.01645	256.88419	-14.15785	382.37628	14.00628	1216.56763	-542.70148	-73.07085	602.61560	-357.41925	86.97760	602.00262	-366.62833	-21.73509	534.35352	584.93823	135.14900	527.84778	577.63818	
1902	19.010	-165.33014	42.03819	-221.53706	157.24817	134.78328	-261.58868	-193.93105	73.26841	374.37442	256.55685	-14.30412	382.46774	14.34089	1217.04333	-540.53387	-72.61773	603.29156	-356.41235	87.75641	602.36060	-365.73697	-20.21078	532.50989	586.09460	136.54796	526.24274	577.95300	
1903	19.020	-166.04845	41.81826	-221.23506	162.12262	145.46869	-260.36136	-188.03761	82.37377	376.98663	255.98643	-14.26631	382.60410	14.38149	1217.47668	-538.94073	-72.12150	603.71594	-355.36368	87.84377	602.61273	-364.99008	-19.27890	531.37439	586.74597	137.80956	524.31799	578.93671	
1904	19.030	-166.53157	41.62236	-221.05557	166.31442	154.94019	-259.23160	-181.14740	89.95699	379.29773	255.91191	-14.61137	382.73926	14.64657	1217.85559	-537.91425	-71.97473	604.05090	-354.38776	88.22875	603.04376	-363.89059	-17.53739	529.40643	587.94470	139.12021	522.84650	579.37549	
1905	19.040	-167.02869	41.75484	-220.99509	169.56433	162.96338	-257.97699	-175.98932	96.56709	381.45840	255.41139	-14.94934	382.90112	15.86914	1218.01941	-536.49036	-71.53880	604.28375	-353.26468	88.44131	603.50659	-363.13770	-16.54138	528.06128	588.40363	140.39253	521.44775	579.78772	
1906	19.050	-167.72876	41.99796	-220.95090	173.38618	167.36667	-255.86255	-170.48680	100.50321	383.65735	254.79906	-15.26040	382.90741	16.16210	1217.77368	-535.83130	-71.68797	604.93274	-352.31036	88.32353	603.88904	-362.75388	-15.13613	526.78253	588.98999	142.22943	520.22211	580.89661	
